<svg id="Layer_1" data-name="Layer 1" xmlns="http://www.w3.org/2000/svg" width="409.8" height="83.8" viewBox="0 0 409.8 83.8"><defs><style>.cls-1{fill:#bc0000;}</style></defs><title>ultrasecreto</title><path class="cls-1" d="M406.1,8.5c-.1,1.8-1.3,2-2.9,2l-27.6.7-46,1.2-20.7.5a3.3,3.3,0,0,1,3.3-3.1h1.4c7.9-.2,15.7.1,23.6-.5s17.7-.5,26.5-.8l38.5-1,3.9.2Z" transform="translate(-56.2 -6.1)"/><path class="cls-1" d="M201.7,12.9,234,11.8c1.3,0,2.3,1.5,4.1.1s3.8-.5,5.7-.3,6.1-1.3,9,.8c.6.4,3.2,1.8,4.1-.8,0-.3.8-.4,1.3-.4l25-.6c-.7,2.3-1.9,3.1-3.9,3.2-22.3.5-44.6,1.2-66.9,1.6-2.3,0-4.6.2-6.9.4s-3.3-.3-4.2-2.1Z" transform="translate(-56.2 -6.1)"/><path class="cls-1" d="M285.4,84.1l-72.6,2.1a5.9,5.9,0,0,1,5.2-3.3l61-1.6a10.9,10.9,0,0,1,6.3,2.2C285.3,83.7,285.4,83.9,285.4,84.1Z" transform="translate(-56.2 -6.1)"/><path class="cls-1" d="M58.7,69.9c-.8-.1-1.5-.1-1.5-1.3,0-3.8-.2-7.5-.3-11.3a2.5,2.5,0,0,1,.6-1.9c1.2-1.1.9-1.2-.3-2.8a2.4,2.4,0,0,1-.4-1.7c-.2-8.6-.5-17.2-.6-25.8-.1-4.6,3-7.4,7.2-8.8,1.9-.7,2.5,2.9,4.5.4s4.1-.4,6.2-.6a3.4,3.4,0,0,1,2.4.7c.4.4,1.1.7,1,1.4s-1,.8-1.7.9c-3.1,0-6.3.1-9.4.3-6,.2-8.3,3.5-7.2,9.5a51.5,51.5,0,0,1,.3,8.8c.3,9.4.4,18.9.8,28.3a4.3,4.3,0,0,1-1.7,3.9Z" transform="translate(-56.2 -6.1)"/><path class="cls-1" d="M58.6,69.9c1.6.5,1.9,1.6,1.9,3.1s.1,5.1.2,7.6c.2,4.3,1.9,6.3,6.3,6.2,10.9-.1,21.8-.5,32.7-.7a31.4,31.4,0,0,1,7.5.2c1.7.3,2.1,1.2,2.7,2.6-14.5.3-28.9.8-43.2,1-5.8.1-9.1-3.4-9.1-9.1,0-3.6-1.4-7.5,1.1-10.9Z" transform="translate(-56.2 -6.1)"/><path class="cls-1" d="M144.6,85.1c10.3.2,20.6-.7,30.8-.8s22-.6,32.9-1.1c1.3-.1,2.7.1,4,.1s.1.3.1.4c-1.2,2.3-3.3,2.6-5.6,2.6l-59.7,1.5c-1.8,0-2.2-1-2.8-2.2Z" transform="translate(-56.2 -6.1)"/><path class="cls-1" d="M440.3,6.4c5.8-.1,10.9-.4,16.1-.3,3.4.1,7.9,5.2,8,8.5.3,7.6.7,15.1.5,22.6-.1,2.7.8,5.4.2,8.2-2.1-.3-3-1.3-3.1-3.5-.1-8.1-.3-16.2-.6-24.4s-3.3-9.8-10.3-8.6c-2.1.3-4.1.2-6.1.5S441.7,8.8,440.3,6.4Z" transform="translate(-56.2 -6.1)"/><path class="cls-1" d="M136.7,17.4,96.8,18.5a6,6,0,0,1,5.2-3.2c10.9-.2,21.9-.4,32.8-.9,2.5-.1,1.6,1.3,1.8,2.4A1.3,1.3,0,0,1,136.7,17.4Z" transform="translate(-56.2 -6.1)"/><path class="cls-1" d="M143.6,85.3c-.6,2.7-3.1,2.6-4.8,2.7-8.4.5-17,.4-25.4.8-2.4.2-2.5-1.8-4.6-3.1,12.2.2,23.5-1.2,34.8-.3Z" transform="translate(-56.2 -6.1)"/><path class="cls-1" d="M406.1,7.6c10.2-.9,20.3-.7,30.5-1.1a3.6,3.6,0,0,1,2.5,1c.6.4,1,.9.8,1.5s-.9.5-1.4.5c-8.1.3-16.2.3-24.3.8-2.1.1-3.9-1.5-6.2-.1s-.1-1.5-.9-2Z" transform="translate(-56.2 -6.1)"/><path class="cls-1" d="M445.1,80.3c-10.5-1.1-20.5,2.4-30.3-1.4V77.7l26.3-.5C442.6,77.2,443.6,78.6,445.1,80.3Z" transform="translate(-56.2 -6.1)"/><path class="cls-1" d="M136.6,16.8c1.9-2.7,4.7-2.5,7.4-2.6l15.5-.4c2,0,4.2-.6,4.7,2.3a2.1,2.1,0,0,1-.4.6l-27.1.7A1.3,1.3,0,0,0,136.6,16.8Z" transform="translate(-56.2 -6.1)"/><path class="cls-1" d="M462.9,70.4c-.2-8.4-.5-16.7-.8-25.7a10.6,10.6,0,0,1,3.3,7.6c.3,5.4.2,10.7.5,16,.2,2.3-1.1,1.9-2.3,2Z" transform="translate(-56.2 -6.1)"/><path class="cls-1" d="M463.3,71.9c2.1.4,3,1.1,1.6,3.3a9,9,0,0,1-5.3,4.1c-4.3,1.1-8.8.4-13.2.3-.9-.1-1.7-1-3.3-1.9,4.4-1.5,8.1-.8,11.7-.9s6.8-1.4,8.6-4.9Z" transform="translate(-56.2 -6.1)"/><path class="cls-1" d="M201.7,12.9l-.4.8c-1.4,1.8-3.3,2.2-5.4,2.3-3.7,0-7.5.1-11.2.3-2,.1-3.3-.5-4-2.3l.3-.6A204.4,204.4,0,0,1,201.7,12.9Z" transform="translate(-56.2 -6.1)"/><path class="cls-1" d="M97.2,15.4c-.4,2.6-1.7,3.3-3.9,3.3-4.3-.1-8.7.2-13.1.3-1.3.1-1.8-.1-2-1.8s1.7-1.1,1.7-1.1Z" transform="translate(-56.2 -6.1)"/><path class="cls-1" d="M305.4,10c-2.5,2.4-4.5,3.3-7.1,3.3l-12.3.2c-.7.1-1.8.6-2.1-.7s1.1-1.9,1.6-2a27.9,27.9,0,0,1,11.5-.2c1.7.5,3.1,2.6,4.5-.4C301.7,9.7,303.5,10.1,305.4,10Z" transform="translate(-56.2 -6.1)"/><path class="cls-1" d="M181,13.4l-.3.6c-.2,1.6-.6,2.6-2.8,2.5-4.7-.2-9.4.1-14.1.2a2.1,2.1,0,0,0,.4-.6c-.3-1.9.6-2.5,2.4-2.5Z" transform="translate(-56.2 -6.1)"/><path class="cls-1" d="M295.5,83.8c-2.4-.8-4.6-.3-6.5-2.8C291.6,81.6,294.3,79.7,295.5,83.8Z" transform="translate(-56.2 -6.1)"/><path class="cls-1" d="M288.1,84.1h-2.7c0-.2-.1-.4-.1-.6s-1.2-1-1.2-2c1.9-.8,3.2-.2,3.8,1.8Z" transform="translate(-56.2 -6.1)"/><path class="cls-1" d="M287.9,83.3c.6-.2,1.5-1,1.7,0s-.9.7-1.5.8S288,83.6,287.9,83.3Z" transform="translate(-56.2 -6.1)"/><path class="cls-1" d="M463.6,70.3c.6.6.1,1.1-.3,1.6h.1c-.6-.4-.5-1-.5-1.5Z" transform="translate(-56.2 -6.1)"/><path class="cls-1" d="M406.1,7.6l1,.6-1,.3V7.6Z" transform="translate(-56.2 -6.1)"/><path class="cls-1" d="M212.3,83.3h.8c-.1.5-.4.4-.7.3S212.3,83.5,212.3,83.3Z" transform="translate(-56.2 -6.1)"/><path class="cls-1" d="M296.2,80.9l51.4-1.4,61.1-1.6c2.1-.1,5.4-.5,5.5,1.7s-3.3,1.3-5.2,1.3l-107,3C299.5,83.9,297.6,83.6,296.2,80.9Z" transform="translate(-56.2 -6.1)"/><path class="cls-1" d="M144.6,85.1l-.3.5-.7-.3h0C143.8,84.8,144.2,84.9,144.6,85.1Z" transform="translate(-56.2 -6.1)"/><path class="cls-1" d="M171.5,46.7c.8-.2,1.2,0,1.2,1l.6,16.6c0,.9,0,1.8-1.4,1.2a1.2,1.2,0,0,0-.8.1c-5.9.8-7.3-.1-9.3-5.6-.6-1.6-1-3.3-2.5-4.3s-.4-1.5.1-2.3a.8.8,0,0,0-.4-1.3c-1.2-.5-.3.6-.6.8s-.9-.1-1.1-.5-1.6-2.3-2.3-3.5-.4-.8-.7-.7,0,.6,0,.9c.1,5,.2,10.1.5,15.2,0,1.5-.2,2.3-1.9,2.1s-2.1.2-3.1.1-2.8.7-2.9-.5-1.2-4.2.8-6.3,2.1.7,2.9-.9l-.7-.2c-3.6-.1-3.6-2.4-3.7-5.2,0-6.5-.3-12.9-.6-19.4-.1-1.6.4-1.9,1.9-2.1,4.3-.8,7.3.2,9,4.6,1.1,2.8,2.9,5.2,4.7,8.2-3.6-1.5-5.6-4.5-9-5.5,3.3,4.3,9.7,4.7,12.4,10,0-1.8,0-3.5-.1-5.3l-.3-10.4c-.1-.9-.2-1.9.9-2s4.1-.3,6.2-.3.9.7.9,1.5c-.1,3.9.6,7.9.1,11.8-.1,1-1,.9-.9,1.6a1.5,1.5,0,0,0-1.4,1.8Z" transform="translate(-56.2 -6.1)"/><path class="cls-1" d="M129.8,33.8a13.7,13.7,0,0,1,6.1,8.2,27.3,27.3,0,0,1,.4,15c-1.3,4.7-3.6,9.1-9.1,10.3s-10.1,1-14.1-3.1a14.7,14.7,0,0,1-3.5-5.7,27.5,27.5,0,0,1-.4-16.3c1.1-4.1,3.4-7.5,7.6-9,1.2-.5,2.6-1.9,3.9.1.1.1.8-.1,1.3-.2C125.3,32,126.8,32.1,129.8,33.8Zm-3,24.4a11.3,11.3,0,0,0,1.9-6.7c-.1-3.4,0-7.1-2.7-9.9s-7.5-1.5-8.5,1.7a21.4,21.4,0,0,0,.3,13,5,5,0,0,0,4.5,3.5A4.6,4.6,0,0,0,126.8,58.2Z" transform="translate(-56.2 -6.1)"/><path class="cls-1" d="M235.9,56.7c-1.4-.5-1.4-1.4-.6-2.4s3.3-2,3.5-4.2c-1.7.6-2.2,2.1-2.9,3.3-1.7-.8-1.6,1.6-2.8,1.7s-.5-1.2-.5-1.8c-.2-6.8-.4-13.5-.7-20.3-.1-1.5,0-2.2,1.8-2.2,4.7.3,9.4-.6,14.2.1a9,9,0,0,1,7.5,5.5,28.1,28.1,0,0,1,1.2,21.5c-.3.8-.3,2.6-2.1,1.7s-.5,0-.5.4c-.2,4.2-3.8,4.4-6.5,4.8-4.3.7-8.8.5-13.2.7-.4,0-1.4.3-1.1-.6s-.5-3.8-.1-5.7,1.2-2.3,2.9-2.1l5.7,1.9C239.8,58.1,238.2,56.1,235.9,56.7Zm12.8-2c1.2-3.3.8-7,.4-10.8a6,6,0,0,0-7.3-5.6c-1.1.2-1.1.7-1.1,1.5l.6,16.3c0,.6,0,1.1.7,1.3S247.6,56.7,248.7,54.7Zm3.5,6.6c-.8-1.6-2.6-1.3-3.7-1.9s-1-.5-1.1.2.2,1.2.4,1.2S250.5,62.3,252.2,61.3Z" transform="translate(-56.2 -6.1)"/><path class="cls-1" d="M325.2,34.1c.8.5.6,1.3.7,2,.3,8.4.5,16.8.9,25.1,0,1.5-.3,2.3-1.9,2.1h-2.3c-3,.5-4.9-.3-5.8-3.5-.5-1.7-2-3.1-3-4.7s-1.8-2-.8-3.5-.1-1.4-.7-1.4c-2.7-.2-2.7-3-4.5-4.7a57.5,57.5,0,0,0-.1,5.8c.1,3.7.3,7.3.5,11,0,.6.2,1.4-.8,1.4s-4.3.3-6.5.3-.7-1.1-.7-1.7c-.2-3.8-.8-7.6-.3-11.3s-.5-5.9-.5-8.9a83.6,83.6,0,0,0-.4-10c-.2-2.3.6-3,2.7-2.7h2.5c2.7-.4,3.7.7,4.4,3.3s1.9,2.4,2.6,3.8l1,1.7c2.2,3.6,2.2,3.6-1.3,6.2l-.7,1c1.1.1,1.6-.7,2.3-1.1s1.7-.8,2.1-2l3.4,5.2a17.6,17.6,0,0,0,0-3.3c-.8-3.2,1.1-5,3.4-6.2a10.1,10.1,0,0,0,3.8-3.9Zm-5.3,23.7c-.2-.9-.2-2-.5-2s-2.2-1.1-.9-2.6-.6-1.1-.7-.7-2.9,1.1-1,3A13.8,13.8,0,0,0,319.9,57.8Z" transform="translate(-56.2 -6.1)"/><path class="cls-1" d="M268.8,40a9.8,9.8,0,0,0,5.3,2.3c3,.2,6.1-.3,9,1,.9.5,1.6.6,2.1-.7s1.8-.4,2.7-.4,1.1.6,1,1.4.1.6.1.8c.2,4.7.2,4.7-4.5,4.9-2.1.1-4.1.3-6.2.2s-3,.8-2.5,2.9a5,5,0,0,1,.1,1.7c-.3,2.2.7,2.4,2.6,2.3s6.6-.1,9.8-.4,2.9.6,2.7,2.6c-.1.2,0,.4,0,.5.1,4.8.1,4.7-4.6,4.8l-14.8.5c-3.8.2-4.1-.3-4.1-4s-.2-7.3-.4-10.9l-.6-18.3c-.1-1.1.4-1.3,1.3-1.3l20.3-.7c1.1-.1,1.3.3,1.5,1.4.7,5.8.7,5.9-5.2,6.1-2.6.1-5.2.7-7.4-1.6-.1,1,.7,1,1,1.7-1.8,0-3.3.2-2.7,2.6s-.1.9-1.1.9S271.1,40.1,268.8,40Zm2.8-4c4.6.2,2.4-3,3.6-4.4-1.2,1.1-1.5,2.9-3.1,3.5s-.8,1.7-.1,2.3a10,10,0,0,0,2.3,1.4C274.6,37.1,273.3,37,271.6,36Z" transform="translate(-56.2 -6.1)"/><path class="cls-1" d="M418.6,60.1a2.1,2.1,0,0,1-2.4,1.7,12.6,12.6,0,0,0-2.8.1c-3,.7-4.5-.4-4.7-3.4s-1-2.4-2.8-2.1-3.5.1-5.3.2-2.5-.2-2.7,1.7-1.4-.4-2,.6,2.4,1.6,1.2,3.2-1,.5-1.2.3-1.2-1.5-.9-2.7-.5.3-.5.4c0,3.5-2.7,2.3-4.6,2.6s-1.6-.6-1.1-1.4c1.8-2.6.9-5.7,2.1-8.5s1.8-6.3,2.6-9.4,2.5-9.1,3.6-13.7c.3-1.3.8-2,2.4-2,7.4-.4,7.4-.5,9.8,6.5s4.9,14.5,7.5,22c-2-.5-2.9-2.4-4.8-2.6,1.6,2.8,5.1,3.7,6.6,6.5ZM405.6,50c.3.1.7.4.9,0a1.3,1.3,0,0,0-.5-1.2c.3-1.3-.7-2.3-.8-3.5s.7.2.9-.2-.2-.7-.5-1c-2.3-1.2-1.1-4.5-3.2-5.8-2.3,4-3.6-.9-5.7-.5.8,1.3,2.1,1.6,3.1,2.3s1.9,1.6,1.4,2.4-.4,2.5-.7,3.6-.5,3.6,2.3,3c1-.2,1.6.1,1.8,1.2s1,1,1.7,1.2S405.1,50.8,405.6,50Z" transform="translate(-56.2 -6.1)"/><path class="cls-1" d="M92.4,57.6c.3-.4.4-.8.6-.9s-.2-2.9,1.4-2.7a23.6,23.6,0,0,1,6.2,2c.7.3.3,1.2.2,1.7-1.5,8.3-9,12.7-17,10.2a12.4,12.4,0,0,1-8.1-7.8c-2.5-6.6-2.8-13.2-.2-19.8s10.4-9.7,16.3-7.1c1.5.7,3.5,1,4.8,2.6a20.3,20.3,0,0,1,3.2,5.5c.5,1.1.5,1.8-.9,2a11.3,11.3,0,0,0-2.4.8c-2.1.9-3.5,1.2-5-1.5s-6.6-2.7-8.1.9-1.4,9.6.4,14.3a4.2,4.2,0,0,0,4.3,2.6C90.3,60.4,91.9,59.6,92.4,57.6Z" transform="translate(-56.2 -6.1)"/><path class="cls-1" d="M339.8,58.2c-2.7-.8-3.3-3.1-3.8-5.3-1.3-6-1.7-12,1.1-17.9s7-7.5,13.3-7.1a11.8,11.8,0,0,1,10.7,9c.1.2.3.6.2.8-1.5,1.8-4,1.5-5.9,2.4s-1.3.2-1.7-.7c-1-2.5-2.8-3.9-5.5-3.4s-3.9,2.7-4.3,5.2a23.7,23.7,0,0,0,.6,10.6c1.2,3.9,4.7,5,8,2.8s2.7-2.3,2.4-5.7c2.4,1.2,5.1,1.3,7.7,2.9-1.6.9-2.2-.6-3.5-.2,4,1.2,2.4,3.6,1.4,5.8-3,5.9-12.4,8.5-17.9,4.9-.9-.6-1.2-.9,0-1.7s1.5-1.3,2.4-3.2a41.1,41.1,0,0,1-3.5,2.7c-1.3.8-2.1.4-1.6-1.3.6.1,1-.2.8-.7S340,57.8,339.8,58.2Z" transform="translate(-56.2 -6.1)"/><path class="cls-1" d="M191.4,39.8v5.8c3.4-1.5,7-.8,10.5-1,.7-.1.6.8.7,1.3.8,5.3.7,5.5-4.8,5.7s-5.8.2-5.6,6.1c0,2.2,0,4.3.2,6.4s-.2,2.1-1.8,2H188c-1,0-2.7.8-1.8-1.6.1-.1-.3-.8-.6-.8-2.8-.6-2-2.8-2.1-4.6l-.9-24.5c0-1.5-.8-2.7,2.3-2.9,5.5-.2,11.2-.2,16.7-.8,1.8-.2,2.2.5,2.3,2.2.2,5.2.3,5.2-4.9,5.4h-4.5c-2.3.3-4.4,0-5.8-2.3-.8,1.8,2.5,2.4.8,4.2C190.4,41,190.7,39.9,191.4,39.8Zm-1,23.7c.4.1.9-.3.7-.5s-.8-.4-1.2.1v.6Zm-1.8-20.6c.5.2,1,.5,1.5,0s.1-.4.1-.5-1.1-.3-1.7-.1l-.9.4C187.8,43.2,188.2,43.2,188.6,42.9Zm.3,19.6c-.4,0-.8-.3-1.1-.2s-.6-1.7-1.3-.4.6.9,1.1,1.3a1.5,1.5,0,0,0,1.6-.2c.3,0,.5-.2.4-.5S189.1,62.3,188.9,62.5Z" transform="translate(-56.2 -6.1)"/><path class="cls-1" d="M425.2,60.4c.7-.6.4-1.4.4-2.2-.1-8.1-1.2-16.1-.4-24.1a.3.3,0,0,1,.1-.2c-1.2-2-1.5-5.1-.4-6s4.3-.4,6.6-.6,1.6.4,1.6,1.6c0,5,.5,10.1.3,15.1-.1,2.7.4,5.4.5,8.1s.7,1.3,1.6,1.2l10.2-.4c1.4-.1,2.2.4,1.7,1.7s-.1,3.7.2,5.5-.3,1.3-1.2,1.4l-17.5.6c-1.5,0-2.4-1.2-3.7-1.7Z" transform="translate(-56.2 -6.1)"/><path class="cls-1" d="M222.5,65a4,4,0,0,1-2.8.5c-5.7.2-5.7.2-5.9-5.4-.3-8.9-.6-17.8-1-26.7-.1-1.9.4-2.4,2.3-2.4,6.2-.3,6.2-.3,6.5,5.9.1,3.9.3,7.7.4,11.6,0,1.5.4,3.6-2.4,2.3-.8-.4-.8.7-.9.9s.8.7,1,.7c2.8-.3,2.5,1.6,2.5,3.4l.3,8.1Z" transform="translate(-56.2 -6.1)"/><path class="cls-1" d="M380.2,57.5c-1.8-.8-3.4-1.2-2.8-3.3s-.2-.8-.6-1-.9.1-1.1.5-.8,1.5-2,1.3c1.4,1.5,3.3,1.4,4.9,2.3s1.9,2.5,1.7,4-1.8.9-2.8,1c-5.7.3-5.7.3-5.9-5.6-.4-8.8-.6-17.6-1-26.4-.1-1.9.3-2.9,2.4-2.3h.3c1.9-.3,4.4-1.2,5.5.1s.5,3.5.5,5.4c.2,4.4.4,8.8.5,13.2a5.4,5.4,0,0,1-.1,2.2c-.7,1.1-.6,1.8.1,3S380.1,55.5,380.2,57.5Z" transform="translate(-56.2 -6.1)"/><path class="cls-1" d="M325.2,34.1,317.9,39l-.3-8.8c0-.1-.1-.2,0-.3,1.5-2.2,3.8-.7,5.7-1.1s2.3-.8,2.3,1,.6,3-.4,4.3Z" transform="translate(-56.2 -6.1)"/><path class="cls-1" d="M405.6,50c-.3-.5-.2-.9.4-1.2a1.3,1.3,0,0,1,.5,1.2C406.3,50.4,405.9,50.1,405.6,50Z" transform="translate(-56.2 -6.1)"/><path class="cls-1" d="M405.2,45.3c-.4-.6.2-.8.4-1.2s.8.5.5,1S405.5,45.3,405.2,45.3Z" transform="translate(-56.2 -6.1)"/></svg>